<?xml version="1.0" encoding="utf-8"?>
<!-- Generator: Adobe Illustrator 26.0.1, SVG Export Plug-In . SVG Version: 6.00 Build 0)  -->
<svg version="1.1" id="a" xmlns="http://www.w3.org/2000/svg" xmlns:xlink="http://www.w3.org/1999/xlink" x="0px" y="0px"
	 viewBox="0 0 200.9 264.2" style="enable-background:new 0 0 200.9 264.2;" xml:space="preserve">
<style type="text/css">
	.st0{fill:#1D1D1B;}
</style>
<path class="st0" d="M29.6,173.4h-4.7v2.2H29v1.3h-4.2v2.2h4.8v1.3l-6.2,0l0-8.3l6.1,0V173.4L29.6,173.4z"/>
<path class="st0" d="M36.3,175.5c1.8,0.4,2.7,1.1,2.7,2.4c0,1.6-1.2,2.5-3,2.5c-1.3,0-2.5-0.4-3.5-1.3l0.9-1.1
	c0.8,0.7,1.6,1.1,2.6,1.1c0.9,0,1.5-0.4,1.5-1.1c0-0.6-0.3-0.9-1.9-1.3c-1.8-0.4-2.8-0.9-2.8-2.5c0-1.4,1.2-2.4,2.8-2.4
	c1.2,0,2.2,0.4,3,1l-0.8,1.1c-0.8-0.6-1.5-0.9-2.3-0.9c-0.8,0-1.3,0.4-1.3,1C34.3,174.9,34.7,175.1,36.3,175.5L36.3,175.5z"/>
<path class="st0" d="M45.8,180.3h-1.5l0-6.9h-2.6V172l6.7,0v1.4h-2.6C45.8,173.4,45.8,180.3,45.8,180.3z"/>
<path class="st0" d="M50.3,180.3v-1.6h1.6v1.6H50.3z"/>
<path class="st0" d="M148,171.9h1l0,8.4h-1.4l0-6.9l-1.5,0.4l-0.3-1.2L148,171.9L148,171.9z"/>
<path class="st0" d="M154.9,180.4c-1.1,0-2-0.4-2.7-1l0.8-1.1c0.6,0.5,1.2,0.8,1.9,0.8c1.2,0,1.9-1.1,2-2.6
	c-0.4,0.5-1.1,0.9-1.9,0.9c-1.8,0-2.9-1-2.9-2.6c0-1.6,1.2-2.9,3.1-2.9c1,0,1.7,0.3,2.3,0.9c0.6,0.6,1,1.5,1,3.2
	C158.4,178.5,157.1,180.3,154.9,180.4L154.9,180.4z M155.1,173c-1,0-1.6,0.7-1.6,1.6c0,0.9,0.7,1.5,1.7,1.5c1.1,0,1.7-0.7,1.7-1.5
	C156.9,173.7,156.2,173,155.1,173L155.1,173z"/>
<path class="st0" d="M166.3,173.8c-0.6-0.4-1.1-0.7-1.8-0.7c-1.2,0-1.9,1.1-2,2.6c0.4-0.4,1-0.8,2-0.8c1.6,0,2.9,0.9,2.9,2.6
	s-1.3,2.8-3.1,2.8c-1,0-1.8-0.3-2.3-0.9c-0.6-0.6-1-1.5-1-3.2c0-2.6,1.2-4.5,3.5-4.5c1.1,0,1.8,0.3,2.5,0.9L166.3,173.8L166.3,173.8
	z M164.2,176.1c-1,0-1.7,0.7-1.7,1.5c0,0.9,0.7,1.5,1.7,1.5c1,0,1.7-0.7,1.7-1.5C165.9,176.7,165.3,176.1,164.2,176.1L164.2,176.1z"
	/>
<path class="st0" d="M170.6,171.9h4.9v1.3h-3.7l-0.1,2c0.4-0.1,0.8-0.2,1.3-0.2c1.6,0,2.9,0.9,2.9,2.6c0,1.7-1.2,2.8-3.1,2.8
	c-1.3,0-2.3-0.5-3.1-1.3l0.9-1.1c0.7,0.6,1.4,1,2.1,1c1,0,1.6-0.6,1.6-1.4s-0.7-1.4-1.7-1.4c-0.6,0-1.1,0.2-1.5,0.4l-0.9-0.6
	L170.6,171.9L170.6,171.9z"/>
<g>
	<path class="st0" d="M193.1,44.2c-0.5,0-0.9,0.4-0.9,0.8c0,20-16.3,36.3-36.3,36.3H147V48.8c0-12.4-4.7-24.2-13.2-33.3
		c-0.4-0.4-0.8-0.8-1.2-1.2c-1.9-1.9-4-3.7-6.2-5.3c-8.1-5.8-17.8-9-28-9.1c-0.1,0-0.2,0-0.3,0C87.6,0,77.9,3.4,69.9,9.1
		c-2.7,1.9-5.2,4.1-7.5,6.6c-8.1,8.7-13,20.4-13,33.2v80.7c0,0.2,0,0.4,0,0.6c0,0,0,0.1,0,0.1v0c0,13.3,5.4,25.4,14.2,34.2
		c5.8,5.9,5.8,5.9,0,0c-8.7-8.8,0.1,0.1,0.1,0.1c0,0,0.1,0.1,0.1,0.1c0,0,0,0,0,0c8.8,8.8,21,14.2,34.4,14.2
		c18.1,0,34.6-10,43.2-26.1c0.2-0.5,0.5-0.9,0.7-1.4c3.2-6.6,4.9-13.9,4.9-21.3v-18.7c6-7.9,9.6-17.8,9.8-28.4
		c20.6-0.4,37.2-17.3,37.2-38C193.9,44.6,193.5,44.2,193.1,44.2L193.1,44.2z M98.2,80.2L87.1,69l0.9-1.8l0.9-1.7l0.9-1.7l0.9-1.8
		l0.9-1.8l1-1.9l1.2-2.3l1-2l1-2l1.1-2.1l1.5-3l1.5,2.9l1.1,2.1l1,2l1,2l1.2,2.4l1,1.9l0.9,1.8l0.9,1.7l0.9,1.8l0.8,1.6l1,1.9
		c0,0-0.1,0.1-0.1,0.1l-7.1,7.1l-3.5,3.5L98.2,80.2L98.2,80.2z M65.5,96.3c4.1-4,8.9-7.2,14.3-9.5c5.3-2.3,11.2-3.6,17.3-3.7h0.2v45
		L65.5,96.3L65.5,96.3z M96.2,129.3H51.1c0.2-12.3,5.2-23.5,13.2-31.8L95.8,129L96.2,129.3C96.1,129.2,96.2,129.3,96.2,129.3z
		 M52.6,40l-0.6-0.1c0.5-2.7,1.3-5.2,2.2-7.8l0.5,0.1c19.2,2.5,30,14.9,36,26.1l-1.1,2.1C82.5,50.9,71,41.2,52.6,40z M98.2,41
		c-1.1-4.3-3.4-11.4-8.1-18c2.2,2,5.2,3.1,8.4,3.1c2.6,0,5.1-0.8,7.1-2.1C101.3,30.3,99.2,36.9,98.2,41L98.2,41z M100.2,80.7
		L100.2,80.7L111,69.8c0,0,0,0,0-0.1c8-7,19.2-10.2,34.2-9.7v21.3H99.5L100.2,80.7z M110.7,67.8l-1.1-2.1c6.5-7,17.7-14.5,35.7-14.7
		v7.3C130.3,57.8,118.9,61,110.7,67.8L110.7,67.8z M108.8,64.2l-1-2.1c6.7-9.6,18.1-19.4,36.6-20.4h0.3c0.4,2.3,0.6,4.7,0.6,7.2v0.5
		C127.6,49.5,116.1,56.5,108.8,64.2L108.8,64.2z M142.2,32.2c0.9,2.5,1.7,5.1,2.2,7.8l-0.4,0l0,0c-18.5,1.1-30.1,10.8-37.1,20.4
		l-1.1-2.1c5.9-11.2,16.8-23.6,35.9-26.1C141.8,32.2,142.2,32.2,142.2,32.2z M141.6,30.6C122.3,33,111.2,45.1,105,56.5l-1.3-2.5
		c5.3-11.4,15.8-26.8,34-30l0.4-0.1C139.5,26,140.6,28.2,141.6,30.6L141.6,30.6L141.6,30.6z M133.1,17.3c1.4,1.6,2.8,3.3,4,5
		c-18.1,3.4-28.7,18.2-34.3,29.7l-1.2-2.3C105.6,38.7,115,20.1,133.1,17.3z M131.4,15.6l0.2,0.2c-17.4,3.4-26.8,20.6-31.2,31.9
		l-1.4-2.8c0.5-2.9,5.1-27.7,26.8-34.1C127.8,12.2,129.7,13.8,131.4,15.6L131.4,15.6z M124.1,9.5c-5.7,1.9-10.2,5-13.7,8.6
		c0.6-1.5,0.9-3.1,0.9-4.8c0-4.8-2.6-8.9-6.5-11.2C111.8,3.2,118.3,5.7,124.1,9.5z M98.5,2.2c6.1,0,11.1,5,11.1,11.1
		s-5,11.1-11.1,11.1s-11.1-5-11.1-11.1S92.4,2.2,98.5,2.2z M92.3,2.1c-4,2.2-6.7,6.4-6.7,11.3c0,2.2,0.6,4.3,1.6,6.1
		c-3.8-4.2-8.6-7.8-15-9.9C78.1,5.6,85,3,92.3,2.1L92.3,2.1z M70.5,10.8C92.6,17.2,97,42.9,97.3,45v0l-1.4,2.7
		c-4.3-11.2-13.8-28.6-31.2-32C66.4,14,68.4,12.3,70.5,10.8z M63.2,17.3c18.2,2.8,27.6,21.5,31.6,32.5l-1.2,2.3
		c-5.6-11.5-16.2-26.4-34.4-29.8C60.5,20.5,61.8,18.9,63.2,17.3L63.2,17.3z M58.3,23.9l0.4,0.1c18.3,3.3,28.7,18.7,34,30.1l-1.3,2.5
		c-6.3-11.3-17.4-23.5-36.7-26h0C55.8,28.2,56.9,26,58.3,23.9L58.3,23.9z M51.1,48.8c0-2.4,0.2-4.8,0.5-7.2l0.3,0
		c18.6,1,30,10.9,36.7,20.5l-1,2C80.8,57,69.3,49.5,51.1,49.4C51.1,49.4,51.1,48.8,51.1,48.8z M51.1,51.1
		c17.5,0.2,28.7,7.2,35.7,14.8l-1,2.1c-8.2-6.9-19.6-10.1-34.6-9.6V51.1L51.1,51.1z M51.1,60c15.3-0.5,26.7,2.8,34.6,10.1
		c0,0,0.1,0.1,0.1,0.1l10.2,10.2l0.8,0.9l-0.5,0h-0.1c-12.7,0.5-24.1,5.8-32.5,14.1c-0.1,0-0.1,0.1-0.2,0.1c0,0.1-0.1,0.1-0.1,0.2
		c-2.9,2.9-5.5,6.3-7.6,9.9c-2.1,3.6-3.8,7.5-4.9,11.7L51.1,60L51.1,60z M51.1,131h37.7c-8.9,3.7-15,12.2-15.2,22.5l-9.3,9.3
		C56.3,154.6,51.3,143.4,51.1,131L51.1,131z M65.5,164.1l8.2-8.2c0.7,8.8,6,16.3,13.6,20.1C78.9,174,71.5,169.8,65.5,164.1z
		 M139.8,152.1c-0.8,1.6-1.8,3.1-2.8,4.6c0,0,0,0.1-0.1,0.1c-7.1,10.4-18,17.5-30.3,19.8c-2.4,0.5-4.9,0.7-7.5,0.8
		c0-0.1,0-0.1,0-0.1c0-0.1,0.1-0.2,0.1-0.3c0.1-0.3,0.1-0.6,0.2-0.9c3.4-12.7,11.1-20.7,22.7-23.7c3.1-0.8,6-1.1,8.6-1.2
		c0.3,0,0.6,0,0.9,0c0.3,0,0.6,0,0.9,0c3.7,0,6.4,0.5,7.3,0.7C139.9,151.9,139.9,152,139.8,152.1L139.8,152.1z M99.6,170.6
		c1-7.1,4.2-13.7,9.1-19c6.3-6.7,14.7-10.6,23.7-11.1c0,3.1-0.3,6.1-1.1,9C121.5,149.7,106.5,153.1,99.6,170.6L99.6,170.6z
		 M145.3,130.2c0,6.9-1.6,13.8-4.5,20c0,0-0.1,0-0.1,0c-0.3-0.1-3.3-0.7-7.5-0.7c0.8-3.2,1.1-6.5,1-9.9c0-0.4-0.4-0.8-0.8-0.8h-0.1
		c-9.9,0.3-19,4.5-25.8,11.7c-4.4,4.7-7.5,10.4-8.9,16.6c-0.8,3.2-1.1,6.6-1,10l0,0v0c-12.2-0.5-22-10.5-22.2-22.7
		c0-0.1,0-0.2,0-0.4c0-0.7,0-1.4,0.1-2.2c1-10.9,9.2-19.3,20-20.7c0,0,1.2-0.1,2.2-0.2c0,0,0.1,0,0.1,0h1l9.2,0.2
		c15,0,28.4-6.8,37.3-17.4L145.3,130.2L145.3,130.2z M147,108.5c-0.5,0.8-1.1,1.6-1.7,2.4c-8.6,11.2-22.2,18.4-37.3,18.4l-8.8-0.2
		H99V83.1h56C154.8,92.5,151.9,101.2,147,108.5L147,108.5z"/>
	<path class="st0" d="M141.1,96.1c1.6,0,3-0.8,3.9-2.1c0.5-0.8,0.8-1.7,0.8-2.6s-0.3-1.9-0.8-2.6c-0.8-1.2-2.3-2.1-3.9-2.1
		c-2.6,0-4.7,2.1-4.7,4.7S138.6,96.1,141.1,96.1L141.1,96.1z"/>
</g>
<g>
	<polygon class="st0" points="1.8,257.6 0.7,257.6 0.7,264 5.2,264 5.2,263 1.8,263 	"/>
	<path class="st0" d="M10.6,257.5L7.7,264h1.2l0.7-1.6h3.1l0.7,1.6h1.2l-2.8-6.5H10.6z M10,261.5l1.1-2.6l1.1,2.6H10L10,261.5z"/>
	<path class="st0" d="M25.1,263.1c-1.2,0-2.1-1-2.1-2.3s0.9-2.3,2.1-2.3c0.8,0,1.3,0.3,1.8,0.8l0.7-0.9c-0.6-0.6-1.3-1-2.5-1
		c-2,0-3.3,1.5-3.3,3.4s1.4,3.3,3.3,3.3c1.2,0,2-0.4,2.6-1.1l-0.7-0.7C26.4,262.8,25.9,263.1,25.1,263.1L25.1,263.1L25.1,263.1z"/>
	<path class="st0" d="M36.1,259.6c0-1.3-0.9-2.1-2.4-2.1h-2.9v6.5h1.1v-2.3h1.4l1.6,2.3h1.3l-1.7-2.5
		C35.4,261.3,36.1,260.7,36.1,259.6L36.1,259.6z M31.9,260.8v-2.2h1.7c0.8,0,1.3,0.4,1.3,1.1c0,0.7-0.5,1.1-1.3,1.1L31.9,260.8
		L31.9,260.8z"/>
	<polygon class="st0" points="40.5,261.3 43.7,261.3 43.7,260.3 40.5,260.3 40.5,258.6 44.1,258.6 44.1,257.6 39.3,257.6 39.3,264 
		44.2,264 44.2,263 40.5,263 	"/>
	<polygon class="st0" points="50,262.5 48.1,257.6 46.8,257.6 49.5,264.1 50.5,264.1 53.2,257.6 52,257.6 	"/>
	<polygon class="st0" points="57.3,261.3 60.6,261.3 60.6,260.3 57.3,260.3 57.3,258.6 61,258.6 61,257.6 56.2,257.6 56.2,264 
		61,264 61,263 57.3,263 	"/>
	<polygon class="st0" points="63.8,258.6 65.8,258.6 65.8,264 67,264 67,258.6 69,258.6 69,257.6 63.8,257.6 	"/>
	<polygon class="st0" points="71.6,258.6 73.7,258.6 73.7,264 74.8,264 74.8,258.6 76.9,258.6 76.9,257.6 71.6,257.6 	"/>
	<polygon class="st0" points="81.1,261.3 84.3,261.3 84.3,260.3 81.1,260.3 81.1,258.6 84.7,258.6 84.7,257.6 79.9,257.6 79.9,264 
		84.8,264 84.8,263 81.1,263 	"/>
	<path class="st0" d="M95,257.6h-2.4v6.5H95c2,0,3.4-1.4,3.4-3.2S97.1,257.6,95,257.6L95,257.6z M95,263h-1.3v-4.4H95
		c1.4,0,2.2,0.9,2.2,2.2S96.4,263,95,263L95,263z"/>
	<polygon class="st0" points="102.8,261.3 106.1,261.3 106.1,260.3 102.8,260.3 102.8,258.6 106.5,258.6 106.5,257.6 101.7,257.6 
		101.7,264 106.6,264 106.6,263 102.8,263 	"/>
	<polygon class="st0" points="117.6,260.6 115.6,257.6 114.4,257.6 114.4,264 115.5,264 115.5,259.4 117.5,262.5 117.6,262.5 
		119.6,259.4 119.6,264 120.8,264 120.8,257.6 119.6,257.6 	"/>
	<path class="st0" d="M126.6,257.5l-2.8,6.5h1.2l0.7-1.6h3.1l0.7,1.6h1.2l-2.8-6.5C127.6,257.5,126.6,257.5,126.6,257.5z M126,261.5
		l1.1-2.6l1.1,2.6H126L126,261.5z"/>
	<path class="st0" d="M135.9,257.6h-2.4v6.5h2.4c2,0,3.4-1.4,3.4-3.2S137.9,257.6,135.9,257.6L135.9,257.6z M135.9,263h-1.3v-4.4
		h1.3c1.4,0,2.3,0.9,2.3,2.2S137.2,263,135.9,263L135.9,263z"/>
	<path class="st0" d="M144.4,257.5l-2.9,6.5h1.2l0.7-1.6h3.1l0.7,1.6h1.2l-2.9-6.5H144.4L144.4,257.5z M143.8,261.5l1.1-2.6l1.1,2.6
		H143.8L143.8,261.5z"/>
	<path class="st0" d="M153.9,261.4h1.7v1.2c-0.4,0.3-1,0.5-1.6,0.5c-1.3,0-2.2-1-2.2-2.3c0-1.3,0.9-2.3,2.1-2.3
		c0.8,0,1.3,0.3,1.8,0.7l0.7-0.9c-0.7-0.6-1.4-0.9-2.5-0.9c-2,0-3.4,1.5-3.4,3.4s1.3,3.3,3.4,3.3c1.2,0,2.1-0.5,2.7-1v-2.7h-2.8
		L153.9,261.4L153.9,261.4z"/>
	<path class="st0" d="M162.3,257.5l-2.9,6.5h1.2l0.7-1.6h3.1l0.7,1.6h1.2l-2.9-6.5H162.3L162.3,257.5z M161.7,261.5l1.1-2.6l1.1,2.6
		H161.7L161.7,261.5z"/>
	<path class="st0" d="M171.6,260.3c-1.2-0.3-1.5-0.5-1.5-1c0-0.4,0.4-0.8,1.1-0.8c0.6,0,1.2,0.2,1.8,0.7l0.6-0.9
		c-0.6-0.5-1.4-0.8-2.4-0.8c-1.3,0-2.2,0.8-2.2,1.9c0,1.2,0.8,1.6,2.2,1.9c1.2,0.3,1.5,0.5,1.5,1s-0.4,0.8-1.2,0.8
		c-0.8,0-1.4-0.3-2.1-0.9l-0.7,0.8c0.8,0.7,1.7,1,2.7,1c1.4,0,2.3-0.7,2.3-1.9C173.6,261.1,172.9,260.6,171.6,260.3L171.6,260.3
		L171.6,260.3z"/>
	<path class="st0" d="M179.9,263.1c-1.2,0-2.1-1-2.1-2.3s0.9-2.3,2.1-2.3c0.8,0,1.3,0.3,1.8,0.8l0.7-0.9c-0.6-0.6-1.3-1-2.5-1
		c-2,0-3.3,1.5-3.3,3.4s1.4,3.3,3.3,3.3c1.2,0,1.9-0.4,2.6-1.1l-0.7-0.7C181.2,262.8,180.7,263.1,179.9,263.1L179.9,263.1
		L179.9,263.1z"/>
	<path class="st0" d="M187.8,257.5L185,264h1.2l0.7-1.6h3.1l0.7,1.6h1.2l-2.9-6.5H187.8L187.8,257.5z M187.2,261.5l1.1-2.6l1.1,2.6
		H187.2L187.2,261.5z"/>
	<path class="st0" d="M200,259.6c0-1.3-0.9-2.1-2.4-2.1h-2.9v6.5h1.1v-2.3h1.4l1.6,2.3h1.3l-1.8-2.5
		C199.3,261.3,200,260.7,200,259.6L200,259.6L200,259.6z M195.8,260.8v-2.2h1.7c0.8,0,1.3,0.4,1.3,1.1c0,0.7-0.5,1.1-1.3,1.1
		L195.8,260.8L195.8,260.8z"/>
</g>
<g>
	<path class="st0" d="M180.7,242.4c-11.1,0-20.2-9.5-20.2-21.2s9.1-21.2,20.2-21.2s20.2,9.5,20.2,21.2c0,0.6,0,1.2,0,1.9
		c0,1.3,0,2.7,0,4.1c0,0.9,0,7.4,0,11.3v2.5c0,0.6-0.5,1.1-1.2,1.1s-1.2-0.5-1.2-1.1v-2.5c0-3.9,0-10.3,0-11.3c0-1.4,0-2.8,0-4.1
		c0-0.6,0-1.3,0-1.9c0-10.4-8-18.9-17.9-18.9s-17.9,8.5-17.9,18.9s8,18.9,17.9,18.9c3.7,0,7.2-1.2,10.3-3.4c0.8-0.6,1.6-1.3,2.4-2.1
		c0.4-0.5,1.2-0.5,1.6-0.1c0.5,0.4,0.5,1.2,0.1,1.6c-0.8,0.9-1.7,1.7-2.7,2.4C188.9,241.1,184.9,242.4,180.7,242.4L180.7,242.4z"/>
	<path class="st0" d="M78.3,218.3c0,0.1,0,0.1,0,0.2v22.3c0,0.7-0.5,1.2-1.2,1.2s-1.2-0.5-1.2-1.2v-22.3c0-0.1,0-0.1,0-0.2
		c0-0.1-0.1-0.1-0.1-0.2c0-8.8-6.9-15.9-15.3-15.9s-15.3,7.1-15.3,15.9c0,0.1,0,0.2-0.1,0.3c0,0,0,0.1,0,0.1v22.3
		c0,0.7-0.5,1.2-1.2,1.2s-1.2-0.5-1.2-1.2v-22.3c0-0.1,0-0.2,0.1-0.3c0,0,0-0.1,0-0.1c0-10.1,7.9-18.3,17.7-18.3s17.7,8.2,17.7,18.3
		C78.4,218.1,78.3,218.2,78.3,218.3L78.3,218.3L78.3,218.3z"/>
	<path class="st0" d="M154.5,215.7c0-8.6-6.6-15.5-14.6-15.5c-6,0-11.1,3.8-13.4,9.2c-2.3-5.4-7.4-9.2-13.4-9.2
		c-8.1,0-14.6,6.9-14.6,15.5c0,0,0,0.1,0,0.1c0,0.1-0.1,0.2-0.1,0.2v24.9c0,0.6,0.5,1.2,1.2,1.2s1.2-0.5,1.2-1.2V216
		c0,0,0-0.1,0-0.1c0-0.1,0.1-0.2,0.1-0.2c0-7.3,5.5-13.2,12.3-13.2c6.3,0,11.5,5.1,12.2,11.6c-0.1,0.5-0.1,1.1-0.1,1.6
		c0,0,0,0.1,0,0.1c0,0.1-0.1,0.2-0.1,0.2v24.9c0,0.4,0.2,0.7,0.5,0.9c0.2,0.2,0.5,0.4,0.9,0.4c0.7,0,1.2-0.5,1.2-1.2V216
		c0-0.1,0-0.1,0-0.2c0-0.1,0-0.1,0-0.2c0-0.5,0-1.1-0.1-1.6c0.7-6.5,5.9-11.6,12.2-11.6c6.8,0,12.3,5.9,12.3,13.2c0,0.1,0,0.1,0,0.2
		c0,0.1,0,0.1,0,0.2v25.1c0,0.6,0.5,1.2,1.2,1.2s1.2-0.5,1.2-1.2V216c0-0.1,0-0.1,0-0.2C154.5,215.8,154.5,215.7,154.5,215.7
		L154.5,215.7L154.5,215.7z"/>
	<path class="st0" d="M35.3,224.4c0-0.1,0-0.1,0-0.2v-22.9c0-0.6-0.5-1.2-1.2-1.2s-1.2,0.5-1.2,1.2v22.9c0,0.1,0,0.1,0,0.2
		c0,0.1,0,0.1,0,0.2c0,8.4-6.9,15.3-15.3,15.3S2.4,233,2.4,224.6c0-0.1,0-0.2-0.1-0.3c0,0,0-0.1,0-0.1v-22.9c0-0.6-0.5-1.2-1.2-1.2
		S0,200.6,0,201.3v22.9c0,0.1,0,0.2,0.1,0.3c0,0,0,0.1,0,0.1c0,9.7,7.9,17.6,17.6,17.6s17.6-7.9,17.6-17.6
		C35.3,224.5,35.3,224.5,35.3,224.4L35.3,224.4L35.3,224.4z"/>
	<path class="st0" d="M88.7,200.1c-0.7,0-1.2,0.5-1.2,1.2v39.6c0,0.6,0.5,1.2,1.2,1.2s1.2-0.5,1.2-1.2v-39.6
		C89.8,200.6,89.3,200.1,88.7,200.1L88.7,200.1z"/>
</g>
</svg>
